/* XPM */
static char *_9f0ebf530a648edd96ced53f7ec207d[] = {
/* columns rows colors chars-per-pixel */
"50 50 176 2 ",
"   c #020302",
".  c #060807",
"X  c #0B0C0B",
"o  c #131413",
"O  c #171918",
"+  c #1B1C1C",
"@  c #1E201F",
"#  c #242424",
"$  c #2B2D2C",
"%  c #302C2B",
"&  c #2E302F",
"*  c #333433",
"=  c #393534",
"-  c #363837",
";  c #373938",
":  c #3B3C3C",
">  c #403C3B",
",  c #3E403F",
"<  c #3F4140",
"1  c #434443",
"2  c #4C4646",
"3  c #474948",
"4  c #4A4B4B",
"5  c #54504F",
"6  c #4F5151",
"7  c #535454",
"8  c #575958",
"9  c #5B5C5B",
"0  c #5E605F",
"q  c #63615F",
"w  c #5F6160",
"e  c #646564",
"r  c #696564",
"t  c #666867",
"y  c #656668",
"u  c #676968",
"i  c #6B6C6C",
"p  c #706B6A",
"a  c #6E706F",
"s  c #75706D",
"d  c #6F7170",
"f  c #737473",
"g  c #7D7777",
"h  c #767877",
"j  c #7C7877",
"k  c #777978",
"l  c #7B7C7B",
"z  c #975C58",
"x  c #A84E4E",
"c  c #A94E57",
"v  c #AB605B",
"b  c #A65460",
"n  c #B05962",
"m  c #817C7B",
"M  c #AF6B68",
"N  c #BC6B74",
"B  c #B1727A",
"V  c #B4797D",
"C  c #CA6060",
"Z  c #C46E6D",
"A  c #CA6E71",
"S  c #C2757B",
"D  c #DC7C7D",
"F  c #7E807F",
"G  c #86827F",
"H  c #7D7E80",
"J  c #7F8082",
"K  c #838484",
"L  c #868887",
"P  c #8C8887",
"I  c #868789",
"U  c #878B8C",
"Y  c #8B8C8C",
"T  c #918D8B",
"R  c #8E908F",
"E  c #8E8F91",
"W  c #8F9192",
"Q  c #939594",
"!  c #9A9594",
"~  c #969897",
"^  c #959698",
"/  c #969999",
"(  c #9A9B9B",
")  c #BC808A",
"_  c #BA898D",
"`  c #A1928B",
"'  c #A19D9C",
"]  c #9EA09F",
"[  c #9D9EA0",
"{  c #A3A4A4",
"}  c #AAA4A4",
"|  c #A6A8A7",
" . c #A6A7A9",
".. c #A7A9A8",
"X. c #ABACAB",
"o. c #B2AEAD",
"O. c #AEB0AF",
"+. c #B1B0AE",
"@. c #ADAEB0",
"#. c #AFB1B1",
"$. c #B3B4B4",
"%. c #B6B8B7",
"&. c #BCB8B7",
"*. c #B6B7B9",
"=. c #B7B9B9",
"-. c #BCBDBC",
";. c #DF8C94",
":. c #CF9299",
">. c #EB9894",
",. c #E4979F",
"<. c #D1A4AB",
"1. c #C1BFBD",
"2. c #D6B4B5",
"3. c #E0A7AE",
"4. c #ECABA9",
"5. c #FFA0A0",
"6. c #FFA6AB",
"7. c #FBAAA9",
"8. c #E3AAB0",
"9. c #FBAAB3",
"0. c #E4B7B2",
"q. c #E8BBBE",
"w. c #BEC0BF",
"e. c #F4C3BE",
"r. c #BFC1C0",
"t. c #C3C4C4",
"y. c #C6C8C7",
"u. c #CAC9C7",
"i. c #C6C7C9",
"p. c #C7C9C8",
"a. c #CBCCCB",
"s. c #D8C9C2",
"d. c #D0CFCD",
"f. c #CED0CF",
"g. c #CDCED0",
"h. c #CFD1D0",
"j. c #D3D3D3",
"k. c #D9D3D3",
"l. c #DAD9D7",
"z. c #D7D9D8",
"x. c #DBDBDB",
"c. c #FFC4CC",
"v. c #F8C9CF",
"b. c #FDCDD4",
"n. c #E0D7D0",
"m. c #E1DDDC",
"M. c #FFD3D0",
"N. c #FFD3DB",
"B. c #FFDBDF",
"V. c #DEE0DF",
"C. c #DEDFE1",
"Z. c #DFE1E0",
"A. c #E3E4E4",
"S. c #E6E8E7",
"D. c #E6E6E8",
"F. c #E7E9E8",
"G. c #EBECEB",
"H. c #FFE3E0",
"J. c #F2E9E2",
"K. c #FFEAE6",
"L. c #FFE4E9",
"P. c #F3EFEE",
"I. c #FFEDED",
"U. c #EEF0EF",
"Y. c #FFF4EF",
"T. c #EEEFF1",
"R. c #F1EFF0",
"E. c #FFEFF4",
"W. c #EFF1F0",
"Q. c #F4F4F4",
"!. c #FEF5F3",
"~. c #F6F9F7",
"^. c #FEFAF5",
"/. c #FEF4FB",
"(. c #F7FBFA",
"). c #FEFEFE",
/* pixels */
").).).).).).).).).).(.).).).(.(.).).).).).).).).).).).).).).).).).).).).(.).).).).).).).).).).).).).",
"^.).).).(.).).).^.).).(.).(.).(.).).).).).).).).).).).).).).).).).).).).).).).).).).).).).(.).).).).",
").^.).).).)./.).).).).~.).).).).).).).).).).).).).).).).).).).).).).).).).).).).).).).(.^.).).).).).",
"^.).E.^.).).).).^.^.^.).^.^./.^.).).).).).).).).).).).).).).).).).(.).).).(.).^.).^.).).).).).).).).",
").L.N.N.B./.^.^.L.v.E.Y.Y.K.E./.).).).).).).).).).).).).).).).).).).).).).).).).).).^.).).).).).).).",
"^.2.n c _ E.Y./.3.B V I.K.z q.Y.).).).).).).).).).).).).).).).).).).).^.).u.{ } X.O.+.} x.).).).).).",
").Y.6.A I.Y.^.Y.L.,.S L.5.x 8./.).).).).).).).).).).).).).).).).~.).^.).J.q r p r } m 9 f ).^.).).).",
"~.Y.7.Z Y.s.` H.N.N ;.6.C D :./.).).).).).).).).).).).).).).).).).).).).U.z.' m { o.g o.l.).).).).).",
").^.4.M I.J.n.L.c.9.b 9.>.v V /.).).).).).).).).).).).).).).).).).).^.).P.^.G T T ! % m.G.^.).).).).",
").^.M.0.^.).!.).<.) b.I.K.e.b./.).).).).).).).).).).).).).).).).).).).).).1.G p s G q ' 1.).).^.).).",
").).^.Y.).).).).)./.E.^.^.Y./.).).).).).).).).).).).).).).).).).).).).).).} p 5 T g > = +.).).).).).",
").).).).).(.).).).^./.).^.).).(.).).).).).).).).).).).).).).).).).^.).).).T r 5 m 2 = 5 d.^.).).).).",
"(.(.).^.).).).).).).).).!.)./.).).).).).).).).).).).).).).).).).).).).~.).T } } } g P G $.).~.).).).",
").).).).).).(.(./.).).).).).).).).).).).).).).).).).).).).).).).).).).).).&.o.^.!.k.&.G x.).).).).).",
").^.).).).).).).).).^.^.).).).).).).).).).).).).).).).).).).).).).).).~.).).! ! m.r q a.).^.).).).).",
").).).^.).).).).).).^.).).).).(.).).).).).).).).).).).).).).).).).).).).).).).k.' P P.).).).).).).).",
").).).).).).).).).).).).).).).).).).).).).).).).).).).).).).).).).).).).).).^.).T./.).).).).).).).).",
").).).).).).).).).).).).).).).).).).^.).).).).).^.).).).).).).).).).)./.).).).).).).).).).).).).).).",
").).).).).).).).).).).).).).^.).(.).).).).).).).).(.).).).).^.).).).).).).).).).).).).).).).).).).).",
").).).).).).).).).).).(.).).).).).).).^.).).^.Q.(.).).).^.(.).(.).).).).).).).).).).).).).).).).).).",
").).).).).).).).).).).S.~./.).).).^.S.j.j.a.f.F.j.F.).^.Q.h.#.j.Z.} R.).).).(.).).).).).).).).).).).",
").).).).).).).).).).).x.G.).).(.D.z.J 7 K $.t.j.x.z.a.-.-.-.t.t.*.T [ i.Q.).).).).).).).).).).).).).",
").).).).).).).).^.).).A.G.).1.t.i.x.%.W l 9 h %.X...Q Q -.i.=.-.1.g.t.1.h.Q.j.l.^.).).).).).).).).).",
").).).).).).).).).).).x.x.A.k L ( -.r.r.O.l a l f Q { { ~ { *.*.t.t.r.X.i.x.{ a.G.Q.).).).).).).).).",
").).).).).).).).).^.).x.a.f.~ u & 9 h l i Y l h W X.Q -.{ R w.h.t.X.1.i.1.D.j.T.Z.h.).).).).).).).).",
").).).).(.).^.G.A.z.i.t.-.] 1 X $ * ; 8 y a Y i L X.( E + * U Q X.{ t.T.x.t.x.A.l.j.j.Z.a.j.Q.).).).",
").).).a.-.w.#.%.r.p.p.p.] { t : ; & = 4 1 y k y Q $.7 # o O Q t.j.t.i.t.m.D.A.a.g.&.X.&.g.| j j.).).",
").).).Q.Z.Q.).).Q.Z.A.S.D.=.h e 7 : # 1 < : 5 l Y 1 + 4 K { A.R.).x.1.h.x.a.! ( ( j ( Y i @ # { ).).",
").).).).).~.Z.r.Q ] r.] y 7 6 @ % # @ # O o X 8 E K &.i.a.a.k.~./.D.a.-.K a r ^ I 8 4 a e o a ( (.^.",
").).).Z.-.y...r./ %.| + X f h 1 % o @ & $ w ! w.u.k.g.g.t.t.a.G.} ^ E h l f i 9 # X P K y 7 : &.(.).",
"(.).G.( / w.@.{ Q Q l * 6 Y 1.k 8 : , 2 -.).G.t.g.i.w.| *.| | K i d a y 5 2 J W & & r.= % 9 ; ).).).",
").).a.k | U < F Q Y K K L / ^ ( 0 9 4 ^ ).).Z.-.} K j ( | p d K i 8 = # X W g * k 7 ^ o 1 y l.).).).",
").).(.$.Q 3 w ~ =.W / *.E E / W f u F w.S.w.Q J L ..y.a.| 9 1 , F R 3 o ; =.0 o t , F * R A.).).).).",
").).(.~.Q l W ] ] L ^ W { W U W 0 F w.O.i - Y ( / Q 0 t t + . R ] , F   3 ( o , 6   e O.F.).).).).).",
").).^.).h.9 * 8 U t.K l @.K U  .F ~ h 4 7 < w 3 , + , F ~ e , w.F X i + , L 7 d & 7 ~ t.z.W.(.).).).",
").).).).).x.w 1 < h R { E  .*.*.a , 3 t t , 9 , . . ( F $ a 8 w.J + 7   . 1 Y l ] w.a.A.W.Q.).).).).",
").).).).).).).z.^ 7 6 H U E  .U K a 3 $ O u L k 3 # %.F X a a ~ 7 e $ @ 7 F ..w.a.h.A.).).).).).).).",
").(.).).^.G.a.@.^ h 6 , y @.E H L a f o & #.7 @ a , w.8 $ 0 . 3 a i h X.w.p.z.S.F.G.(.).).).(.).).).",
").).).).T.j.=.{ Q E H d y y [ *.f F L 6 i { - O a * F 8 i $ , i / O.p.y.u.V.Q.~.).).).).(.).).).).).",
").).^.).D.h.-.$. .Q W I H y y I 0 / / & k i   1 3   $ F F U $.w.y.z.z.z.W.~.).).).).(.).).).).).).).",
").).).).~.D.g.w.#. .( Q E J f y 7 f 3   6 k 8 k - 7 J Q $.r.r.h.x.A.T.(.(.^.).).).).).).^.).).).).).",
").).).).^.~.D.z.t.-.@. ./ W I H a < - & & a R L / %.%.y.j.z.A.S.~.).).).).).).).).).(.).).).).).).).",
").).).).).).^.T.Z.j.i.$. .[ ( ^ R Q Q R Q ( ..w.r.t.j.Z.G.~.).).).).).^.).).).(.).).).(.).).).).).).",
").).).).).).).)./.T.D.x.g.i.t.r.y.w.a.i.f.f.z.V.z.S.G.(.).(.).).).Q.).).).).).).).^.).).).).).).).).",
").).).).).).).).).).).).Q.T.D.C.x.z.z.V.Z.G.).).).).(.).).).(.).).).).).^.).).).).).).).).).^.).).).",
").).).).).).).).).).).).(./.Q.T.U.W.W.W.).).G.U j.V.y.G.-.Z.X.A.$.{ D.g.j.T.*.W.{ G.Y j.z.i.Z.).).).",
").).).).).).).).).).).).).).).).(.(.).(.).).Z.w R Q f #.~.(.X.@.! d ( l K D.D.T.Y -.i Y ( d $.).).).",
").).).).).).).).).).).).).).).).).).).).).).).(.Q.(.(.Q.).).Q.~.Q.(.R.^.(.^.).^.W./.Q.Q.Q.(.^.).).).",
").).).).).).).).).).).).).).).).).).).).).).).).).).).).).).).).).).).).).).).).).).).).).).).).).).",
").).).).).).).).).).).).).).).).).).).).).).).).).).).).).).).).).).).).).).).).).).).).).).).).).)."
};
